<?xml version="1.0" encoding="utf-8"?>
<!-- Generator: Adobe Illustrator 21.1.0, SVG Export Plug-In . SVG Version: 6.00 Build 0)  -->
<svg version="1.1" id="Layer_1" xmlns="http://www.w3.org/2000/svg" xmlns:xlink="http://www.w3.org/1999/xlink" x="0px" y="0px"
	 viewBox="0 0 24 24" style="enable-background:new 0 0 24 24;" xml:space="preserve">
<style type="text/css">
	.st0{fill:none;}
</style>
<path d="M-33.2,64c-6.3,0-11.5-5.2-11.5-11.5S-39.6,41-33.2,41s11.5,5.2,11.5,11.5S-26.9,64-33.2,64z M-33.2,42
	c-5.8,0-10.5,4.7-10.5,10.5S-39,63-33.2,63s10.5-4.7,10.5-10.5S-27.5,42-33.2,42z"/>
<path d="M-33.2,56.5c-0.3,0-0.5-0.2-0.5-0.5v-3c0-0.3,0.2-0.5,0.5-0.5c1.4,0,2.5-1.1,2.5-2.5s-1.1-2.5-2.5-2.5s-2.5,1.1-2.5,2.5
	c0,0.3-0.2,0.5-0.5,0.5s-0.5-0.2-0.5-0.5c0-1.9,1.6-3.5,3.5-3.5s3.5,1.6,3.5,3.5c0,1.8-1.3,3.2-3,3.5V56
	C-32.8,56.3-33,56.5-33.2,56.5z"/>
<path d="M-33.2,59.5c-0.6,0-1-0.4-1-1s0.4-1,1-1s1,0.4,1,1S-32.7,59.5-33.2,59.5z M-33.2,58.5C-33.2,58.5-33.2,58.5-33.2,58.5h0.5
	H-33.2z"/>
<rect x="-45.8" y="40" class="st0" width="25" height="25"/>
<g>
	<path d="M23,23.5H1.4c-0.3,0-0.5-0.2-0.5-0.5V3.3c0-0.3,0.2-0.5,0.5-0.5h3.8c0.3,0,0.5,0.2,0.5,0.5v1.4h1.9V3.3
		c0-0.3,0.2-0.5,0.5-0.5h8.5c0.3,0,0.5,0.2,0.5,0.5v1.4h1.9V3.3c0-0.3,0.2-0.5,0.5-0.5H23c0.3,0,0.5,0.2,0.5,0.5V23
		C23.4,23.3,23.2,23.5,23,23.5z M1.8,22.6h20.7V3.8h-2.8v1.4c0,0.3-0.2,0.5-0.5,0.5h-2.8c-0.3,0-0.5-0.2-0.5-0.5V3.8H8.4v1.4
		c0,0.3-0.2,0.5-0.5,0.5H5.1c-0.3,0-0.5-0.2-0.5-0.5V3.8H1.8V22.6z"/>
	<path d="M19.2,5.6h-2.8c-0.3,0-0.5-0.2-0.5-0.5V1.4c0-0.3,0.2-0.5,0.5-0.5h2.8c0.3,0,0.5,0.2,0.5,0.5v3.8
		C19.7,5.4,19.5,5.6,19.2,5.6z M16.9,4.7h1.9V1.9h-1.9V4.7z M7.9,5.6H5.1c-0.3,0-0.5-0.2-0.5-0.5V1.4c0-0.3,0.2-0.5,0.5-0.5h2.8
		c0.3,0,0.5,0.2,0.5,0.5v3.8C8.4,5.4,8.2,5.6,7.9,5.6z M5.6,4.7h1.9V1.9H5.6V4.7z"/>
	<path d="M23,8.9H1.4c-0.3,0-0.5-0.2-0.5-0.5C0.9,8.2,1.1,8,1.4,8H23c0.3,0,0.5,0.2,0.5,0.5C23.4,8.7,23.2,8.9,23,8.9z"/>
	<rect x="-0.1" class="st0" width="23.5" height="23.5"/>
</g>
</svg>
