<?xml version="1.0" encoding="utf-8"?>
<!-- Generator: Adobe Illustrator 21.1.0, SVG Export Plug-In . SVG Version: 6.00 Build 0)  -->
<svg version="1.1" id="Layer_1" xmlns="http://www.w3.org/2000/svg" xmlns:xlink="http://www.w3.org/1999/xlink" x="0px" y="0px"
	 viewBox="0 0 24 24" style="enable-background:new 0 0 24 24;" xml:space="preserve">
<style type="text/css">
	.st0{fill:none;}
</style>
<path d="M13.5,24h-3c-0.3,0-0.5-0.2-0.5-0.5v-2.9c-0.8-0.2-1.7-0.5-2.3-0.8l-2,2c-0.2,0.2-0.5,0.2-0.7,0l-2.8-2.8
	C2,19,2,18.9,2,18.7c0-0.1,0.1-0.3,0.1-0.4l2-2c-0.3-0.7-0.6-1.5-0.8-2.3H0.5C0.2,14,0,13.8,0,13.5v-3C0,10.2,0.2,10,0.5,10h2.9
	c0.2-0.8,0.5-1.7,0.8-2.3l-2-2C2,5.5,2,5.4,2,5.3C2,5.2,2,5,2.1,4.9l2.8-2.8c0.2-0.2,0.5-0.2,0.7,0l2,2C8.3,3.8,9.2,3.6,10,3.4V0.5
	C10,0.2,10.2,0,10.5,0h3C13.8,0,14,0.2,14,0.5v2.9c0.8,0.2,1.7,0.5,2.3,0.8l2-2c0.2-0.2,0.5-0.2,0.7,0l2.8,2.8C22,5,22,5.2,22,5.3
	S22,5.5,21.9,5.6l-2,2c0.3,0.7,0.6,1.5,0.8,2.3h2.9c0.3,0,0.5,0.2,0.5,0.5v3c0,0.3-0.2,0.5-0.5,0.5h-2.9c-0.2,0.8-0.5,1.7-0.8,2.3
	l2,2c0.2,0.2,0.2,0.5,0,0.7l-2.8,2.8c-0.2,0.2-0.5,0.2-0.7,0l-2-2c-0.7,0.3-1.5,0.6-2.3,0.8v2.9C14,23.8,13.8,24,13.5,24z M11,23h2
	v-2.7c0-0.2,0.2-0.4,0.4-0.5c0.6-0.1,2-0.5,2.8-0.9c0.2-0.1,0.5-0.1,0.6,0.1l1.9,1.9l2.1-2.1l-1.9-1.9c-0.2-0.2-0.2-0.4-0.1-0.6
	c0.5-0.7,0.8-2.2,0.9-2.8c0.1-0.2,0.3-0.4,0.5-0.4H23v-2h-2.7c-0.2,0-0.4-0.2-0.5-0.4c-0.1-0.6-0.5-2-0.9-2.8
	c-0.1-0.2-0.1-0.5,0.1-0.6l1.9-1.9l-2.1-2.1l-1.9,1.9c-0.2,0.2-0.4,0.2-0.6,0.1c-0.7-0.5-2.2-0.8-2.8-0.9C13.2,4.2,13,4,13,3.7V1h-2
	v2.7c0,0.2-0.2,0.4-0.4,0.5c-0.6,0.1-2,0.5-2.8,0.9C7.6,5.3,7.4,5.3,7.2,5.1L5.3,3.2L3.2,5.3l1.9,1.9c0.2,0.2,0.2,0.4,0.1,0.6
	c-0.5,0.7-0.8,2.2-0.9,2.8C4.2,10.8,4,11,3.7,11H1v2h2.7c0.2,0,0.4,0.2,0.5,0.4c0.1,0.6,0.5,2,0.9,2.8c0.1,0.2,0.1,0.5-0.1,0.6
	l-1.9,1.9l2.1,2.1l1.9-1.9c0.2-0.2,0.4-0.2,0.6-0.1c0.7,0.5,2.2,0.8,2.8,0.9c0.2,0.1,0.4,0.3,0.4,0.5V23z"/>
<path d="M12,17c-2.8,0-5-2.2-5-5s2.2-5,5-5s5,2.2,5,5S14.8,17,12,17z M12,8c-2.2,0-4,1.8-4,4s1.8,4,4,4c2.2,0,4-1.8,4-4S14.2,8,12,8
	z"/>
<rect x="-0.5" y="-0.5" class="st0" width="25" height="25"/>
<path d="M86.5,32c-0.1,0-0.3-0.1-0.4-0.1c-0.2-0.2-0.2-0.4-0.1-0.6l2.8-5.7c0,0,0.1-0.1,0.1-0.1l16.2-16.2c0.9-0.9,2.6-0.9,3.5,0
	c1,1,1,2.6,0,3.5L92.5,29c0,0-0.1,0.1-0.1,0.1l-5.7,2.8C86.7,32,86.6,32,86.5,32z M89.7,26.1l-2.1,4.2l4.2-2.1L108,12.1
	c0.6-0.6,0.6-1.5,0-2.1c-0.6-0.6-1.6-0.6-2.1,0L89.7,26.1z M92.2,28.7L92.2,28.7L92.2,28.7z"/>
<path d="M106.9,14.4c-0.1,0-0.3,0-0.4-0.1l-2.8-2.8c-0.2-0.2-0.2-0.5,0-0.7s0.5-0.2,0.7,0l2.8,2.8c0.2,0.2,0.2,0.5,0,0.7
	C107.2,14.4,107,14.4,106.9,14.4z"/>
<path d="M92.2,29.2c-0.1,0-0.3,0-0.4-0.1L89,26.2c-0.2-0.2-0.2-0.5,0-0.7s0.5-0.2,0.7,0l2.8,2.8c0.2,0.2,0.2,0.5,0,0.7
	C92.4,29.1,92.3,29.2,92.2,29.2z"/>
<rect x="85.5" y="7.5" class="st0" width="25" height="25"/>
<path d="M142.5,26.5c-6.5,0-11.7-6.4-11.9-6.7c-0.1-0.2-0.1-0.4,0-0.6c0.2-0.3,5.4-6.7,11.9-6.7s11.7,6.4,11.9,6.7
	c0.1,0.2,0.1,0.4,0,0.6C154.2,20.1,149,26.5,142.5,26.5z M131.7,19.5c1.1,1.3,5.6,6,10.8,6s9.7-4.7,10.8-6c-1.1-1.3-5.6-6-10.8-6
	S132.8,18.2,131.7,19.5z"/>
<path d="M142.5,24c-2.5,0-4.5-2-4.5-4.5s2-4.5,4.5-4.5s4.5,2,4.5,4.5S145,24,142.5,24z M142.5,16c-1.9,0-3.5,1.6-3.5,3.5
	s1.6,3.5,3.5,3.5s3.5-1.6,3.5-3.5S144.4,16,142.5,16z"/>
<path d="M142.5,22c-1.4,0-2.5-1.1-2.5-2.5c0-0.3,0.2-0.5,0.5-0.5s0.5,0.2,0.5,0.5c0,0.8,0.7,1.5,1.5,1.5s1.5-0.7,1.5-1.5
	s-0.7-1.5-1.5-1.5c-0.3,0-0.5-0.2-0.5-0.5s0.2-0.5,0.5-0.5c1.4,0,2.5,1.1,2.5,2.5S143.9,22,142.5,22z"/>
<rect x="130.5" y="7.5" class="st0" width="25" height="25"/>
<path d="M-41,69.5c-4.7,0-8.5-3.8-8.5-8.5s3.8-8.5,8.5-8.5s8.5,3.8,8.5,8.5S-36.3,69.5-41,69.5z M-41,53.5c-4.1,0-7.5,3.4-7.5,7.5
	s3.4,7.5,7.5,7.5s7.5-3.4,7.5-7.5S-36.9,53.5-41,53.5z"/>
<path d="M-26,76.5c-0.1,0-0.3,0-0.4-0.1l-9.3-9.3c-0.2-0.2-0.2-0.5,0-0.7s0.5-0.2,0.7,0l9.3,9.3c0.2,0.2,0.2,0.5,0,0.7
	C-25.7,76.5-25.9,76.5-26,76.5z"/>
<rect x="-49.5" y="52.5" class="st0" width="25" height="25"/>
<path d="M19,76.5c-0.1,0-0.3,0-0.4-0.1l-23-23c-0.2-0.2-0.2-0.5,0-0.7s0.5-0.2,0.7,0l23,23c0.2,0.2,0.2,0.5,0,0.7
	C19.3,76.5,19.1,76.5,19,76.5z"/>
<path d="M-4,76.5c-0.1,0-0.3,0-0.4-0.1c-0.2-0.2-0.2-0.5,0-0.7l23-23c0.2-0.2,0.5-0.2,0.7,0s0.2,0.5,0,0.7l-23,23
	C-3.7,76.5-3.9,76.5-4,76.5z"/>
<rect x="-4.5" y="52.5" class="st0" width="25" height="25"/>
<path d="M50,67.5c-0.1,0-0.1,0-0.2,0l-9-3.5c-0.2-0.1-0.3-0.3-0.3-0.5c0-0.2,0.1-0.4,0.3-0.5l23-9.5c0.2-0.1,0.5,0,0.6,0.2
	c0.1,0.2,0.1,0.5-0.1,0.6l-14,13C50.2,67.5,50.1,67.5,50,67.5z M42.3,63.5l7.5,2.9l11.7-10.9L42.3,63.5z"/>
<path d="M60,73c-0.1,0-0.2,0-0.2-0.1l-10-5.5c-0.1-0.1-0.2-0.2-0.3-0.4c0-0.2,0-0.3,0.2-0.4l14-13c0.2-0.1,0.4-0.2,0.6-0.1
	c0.2,0.1,0.3,0.3,0.2,0.5l-4,18.5c0,0.2-0.1,0.3-0.3,0.3C60.1,73,60.1,73,60,73z M50.8,66.9l8.8,4.8l3.5-16.3L50.8,66.9z"/>
<path d="M50,75.5c0,0-0.1,0-0.1,0c-0.2-0.1-0.4-0.3-0.4-0.5v-8h1v6.2l2.6-4.4l0.9,0.5l-3.5,6C50.3,75.4,50.2,75.5,50,75.5z"/>
<rect x="40.5" y="52.5" class="st0" width="25" height="25"/>
<path d="M89.3,73.1c-0.1,0-0.3-0.1-0.4-0.1c-2.2-2.3-3.5-5.3-3.5-8.4c0-6.6,5.4-12,12-12s12,5.4,12,12c0,3.2-1.2,6.2-3.5,8.4
	c-0.2,0.2-0.4,0.2-0.6,0.1c-0.9-0.6-2.6-1.3-4.4-1.9c-0.5-0.2-1.1-0.4-1.6-0.6C99.1,70.4,99,70.2,99,70v-2.5c0-0.2,0.1-0.4,0.3-0.5
	c0,0,1.2-0.5,1.2-2.5c0-0.3,0.2-0.5,0.5-0.5c0,0,0.1-0.2,0.1-0.5S101,63,101,63c-0.3,0-0.5-0.2-0.5-0.5c0-0.1,0-0.3,0.1-0.6
	c0.2-0.6,0.6-1.9,0.4-2.8c-0.2-0.6-1.3-1.1-2.8-1.1s-2.6,0.5-2.8,1.1c-0.1,0.3-0.3,0.4-0.6,0.4c-0.2,0-0.6-0.1-0.7,0.1
	c-0.4,0.4,0,1.9,0.2,2.4c0.1,0.3,0.1,0.4,0.1,0.5c0,0.3-0.2,0.5-0.5,0.5c0,0-0.1,0.2-0.1,0.5S94,64,94,64c0.3,0,0.5,0.2,0.5,0.5
	c0,2.1,1.1,2.5,1.2,2.5c0.2,0.1,0.3,0.3,0.3,0.5V70c0,0.2-0.1,0.4-0.3,0.5c-0.5,0.2-1,0.4-1.5,0.6c-1.8,0.6-3.6,1.3-4.5,2
	C89.5,73.1,89.4,73.1,89.3,73.1z M97.5,53.5c-6.1,0-11,4.9-11,11c0,2.8,1,5.4,2.9,7.4c1.1-0.7,2.8-1.3,4.4-1.9
	c0.4-0.1,0.8-0.3,1.2-0.4v-1.8c-0.5-0.3-1.4-1.1-1.5-2.9c-0.4-0.2-0.6-0.7-0.6-1.4c0-0.6,0.2-1.1,0.5-1.3c-0.2-0.9-0.7-2.5,0.1-3.3
	c0.3-0.3,0.7-0.5,1.2-0.4c0.6-1.1,2.2-1.5,3.6-1.5c1.5,0,3.4,0.5,3.7,1.9c0.3,1.2-0.1,2.6-0.4,3.3c0.3,0.3,0.5,0.7,0.5,1.3
	c0,0.6-0.2,1.1-0.6,1.4c-0.1,1.8-1,2.6-1.5,2.9v1.8c0.4,0.2,0.9,0.3,1.3,0.5c1.7,0.6,3.3,1.2,4.3,1.8c1.9-2,2.9-4.7,2.9-7.4
	C108.5,58.4,103.6,53.5,97.5,53.5z"/>
<path d="M97.5,76.5c-3.2,0-6.3-1.3-8.5-3.6l0.7-0.7c2.1,2.1,4.9,3.3,7.8,3.3c3,0,5.7-1.2,7.8-3.3l0.7,0.7
	C103.8,75.2,100.7,76.5,97.5,76.5z"/>
<rect x="85.5" y="52.5" class="st0" width="25" height="25"/>
<path d="M-37,121.5c-6.3,0-11.5-5.2-11.5-11.5s5.2-11.5,11.5-11.5s11.5,5.2,11.5,11.5S-30.7,121.5-37,121.5z M-37,99.5
	c-5.8,0-10.5,4.7-10.5,10.5s4.7,10.5,10.5,10.5s10.5-4.7,10.5-10.5S-31.2,99.5-37,99.5z"/>
<path d="M-37,114c-0.3,0-0.5-0.2-0.5-0.5v-3c0-0.3,0.2-0.5,0.5-0.5c1.4,0,2.5-1.1,2.5-2.5s-1.1-2.5-2.5-2.5s-2.5,1.1-2.5,2.5
	c0,0.3-0.2,0.5-0.5,0.5s-0.5-0.2-0.5-0.5c0-1.9,1.6-3.5,3.5-3.5s3.5,1.6,3.5,3.5c0,1.8-1.3,3.2-3,3.5v2.5
	C-36.5,113.8-36.7,114-37,114z"/>
<path d="M-37,117c-0.6,0-1-0.4-1-1s0.4-1,1-1s1,0.4,1,1S-36.4,117-37,117z M-37,116C-37,116-37,116-37,116h0.5H-37z"/>
<rect x="-49.5" y="97.5" class="st0" width="25" height="25"/>
<path d="M155,77.5h-23c-0.3,0-0.5-0.2-0.5-0.5V56c0-0.3,0.2-0.5,0.5-0.5h4c0.3,0,0.5,0.2,0.5,0.5v1.5h2V56c0-0.3,0.2-0.5,0.5-0.5h9
	c0.3,0,0.5,0.2,0.5,0.5v1.5h2V56c0-0.3,0.2-0.5,0.5-0.5h4c0.3,0,0.5,0.2,0.5,0.5v21C155.5,77.3,155.3,77.5,155,77.5z M132.5,76.5h22
	v-20h-3V58c0,0.3-0.2,0.5-0.5,0.5h-3c-0.3,0-0.5-0.2-0.5-0.5v-1.5h-8V58c0,0.3-0.2,0.5-0.5,0.5h-3c-0.3,0-0.5-0.2-0.5-0.5v-1.5h-3
	V76.5z"/>
<path d="M151,58.5h-3c-0.3,0-0.5-0.2-0.5-0.5v-4c0-0.3,0.2-0.5,0.5-0.5h3c0.3,0,0.5,0.2,0.5,0.5v4C151.5,58.3,151.3,58.5,151,58.5z
	 M148.5,57.5h2v-3h-2V57.5z M139,58.5h-3c-0.3,0-0.5-0.2-0.5-0.5v-4c0-0.3,0.2-0.5,0.5-0.5h3c0.3,0,0.5,0.2,0.5,0.5v4
	C139.5,58.3,139.3,58.5,139,58.5z M136.5,57.5h2v-3h-2V57.5z"/>
<path d="M155,62h-23c-0.3,0-0.5-0.2-0.5-0.5s0.2-0.5,0.5-0.5h23c0.3,0,0.5,0.2,0.5,0.5S155.3,62,155,62z"/>
<rect x="130.5" y="52.5" class="st0" width="25" height="25"/>
</svg>
