<?xml version="1.0" encoding="utf-8"?>
<!-- Generator: Adobe Illustrator 21.1.0, SVG Export Plug-In . SVG Version: 6.00 Build 0)  -->
<svg version="1.1" id="Layer_1" xmlns="http://www.w3.org/2000/svg" xmlns:xlink="http://www.w3.org/1999/xlink" x="0px" y="0px"
	 viewBox="0 0 24 24" style="enable-background:new 0 0 24 24;" xml:space="preserve">
<style type="text/css">
	.st0{fill:none;}
</style>
<g>
	<path d="M12,23.5C5.7,23.5,0.5,18.3,0.5,12S5.7,0.5,12,0.5S23.5,5.7,23.5,12S18.3,23.5,12,23.5z M12,1.5C6.2,1.5,1.5,6.2,1.5,12
		S6.2,22.5,12,22.5S22.5,17.8,22.5,12S17.8,1.5,12,1.5z"/>
	<path d="M12,16c-0.3,0-0.5-0.2-0.5-0.5v-3c0-0.3,0.2-0.5,0.5-0.5c1.4,0,2.5-1.1,2.5-2.5S13.4,7,12,7S9.5,8.1,9.5,9.5
		C9.5,9.8,9.3,10,9,10S8.5,9.8,8.5,9.5C8.5,7.6,10.1,6,12,6s3.5,1.6,3.5,3.5c0,1.8-1.3,3.2-3,3.5v2.5C12.5,15.8,12.3,16,12,16z"/>
	<path d="M12,19c-0.6,0-1-0.4-1-1s0.4-1,1-1s1,0.4,1,1S12.6,19,12,19z M12,18C12,18,12,18,12,18h0.5H12z"/>
	<rect x="-0.5" y="-0.5" class="st0" width="25" height="25"/>
</g>
</svg>
