<?xml version="1.0" encoding="utf-8"?>
<!-- Generator: Adobe Illustrator 21.1.0, SVG Export Plug-In . SVG Version: 6.00 Build 0)  -->
<svg version="1.1" id="Layer_1" xmlns="http://www.w3.org/2000/svg" xmlns:xlink="http://www.w3.org/1999/xlink" x="0px" y="0px"
	 viewBox="0 0 24 24" style="enable-background:new 0 0 24 24;" xml:space="preserve">
<path d="M7.5,22.5c-0.1,0-0.1,0-0.2,0C7.1,22.4,7,22.2,7,22v-3.5H0.5C0.2,18.5,0,18.3,0,18V2c0-0.3,0.2-0.5,0.5-0.5h23
	C23.8,1.5,24,1.7,24,2v16c0,0.3-0.2,0.5-0.5,0.5H11.7l-3.9,3.9C7.8,22.4,7.6,22.5,7.5,22.5z M1,17.5h6.5C7.8,17.5,8,17.7,8,18v2.8
	l3.1-3.1c0.1-0.1,0.2-0.1,0.4-0.1H23v-15H1V17.5z"/>
</svg>
