<?xml version="1.0" encoding="utf-8"?>
<!-- Generator: Adobe Illustrator 21.1.0, SVG Export Plug-In . SVG Version: 6.00 Build 0)  -->
<svg version="1.1" id="Layer_1" xmlns="http://www.w3.org/2000/svg" xmlns:xlink="http://www.w3.org/1999/xlink" x="0px" y="0px"
	 viewBox="0 0 24 24" style="enable-background:new 0 0 24 24;" xml:space="preserve">
<path d="M23.5,19.5c-1.4,0-2.5-1.1-2.5-2.5v-5.5c0-3.6-2.2-7-5.6-8.3C15,1.6,13.6,0.5,12,0.5c-1.6,0-3,1.1-3.4,2.7
	C5.2,4.5,3,7.9,3,11.5V17c0,1.4-1.1,2.5-2.5,2.5C0.2,19.5,0,19.7,0,20s0.2,0.5,0.5,0.5h8.1c0.2,1.7,1.7,3,3.4,3s3.2-1.3,3.4-3h8.1
	c0.3,0,0.5-0.2,0.5-0.5S23.8,19.5,23.5,19.5z M12,22.5c-1.2,0-2.2-0.9-2.4-2h4.9C14.2,21.6,13.2,22.5,12,22.5z M2.9,19.5
	C3.6,18.9,4,18,4,17v-5.5C4,8.2,6.1,5.2,9.2,4c0.2-0.1,0.3-0.2,0.3-0.4c0.2-1.2,1.2-2.1,2.5-2.1c1.2,0,2.3,0.9,2.5,2.1
	c0,0.2,0.1,0.3,0.3,0.4c3.1,1.2,5.2,4.2,5.2,7.5V17c0,1,0.4,1.9,1.1,2.5H2.9z"/>
</svg>
