<?xml version="1.0" encoding="utf-8"?>
<!-- Generator: Adobe Illustrator 21.1.0, SVG Export Plug-In . SVG Version: 6.00 Build 0)  -->
<svg version="1.1" id="Layer_1" xmlns="http://www.w3.org/2000/svg" xmlns:xlink="http://www.w3.org/1999/xlink" x="0px" y="0px"
	 viewBox="0 0 24 24" style="enable-background:new 0 0 24 24;" xml:space="preserve">
<style type="text/css">
	.st0{fill:none;}
</style>
<rect x="-4.5" y="52.5" class="st0" width="25" height="25"/>
<g>
	<path d="M9.6,14.9c-0.1,0-0.1,0-0.2,0l-8.6-3.3c-0.2-0.1-0.3-0.2-0.3-0.4c0-0.2,0.1-0.4,0.3-0.4l22-9.1c0.2-0.1,0.5,0,0.6,0.2
		c0.1,0.2,0.1,0.5-0.1,0.6L9.9,14.8C9.8,14.9,9.7,14.9,9.6,14.9z M2.3,11.1l7.2,2.8L20.7,3.5L2.3,11.1z"/>
	<path d="M19.2,20.2c-0.1,0-0.2,0-0.2-0.1l-9.6-5.3c-0.1-0.1-0.2-0.2-0.2-0.4c0-0.2,0-0.3,0.1-0.4L22.7,1.7c0.2-0.1,0.4-0.2,0.6-0.1
		c0.2,0.1,0.3,0.3,0.2,0.5l-3.8,17.7c0,0.1-0.1,0.3-0.3,0.3C19.3,20.2,19.2,20.2,19.2,20.2z M10.4,14.4l8.4,4.6l3.4-15.6L10.4,14.4z
		"/>
	<path d="M9.6,22.6c0,0-0.1,0-0.1,0c-0.2-0.1-0.4-0.2-0.4-0.5v-7.7h1v5.9l2.5-4.2l0.8,0.5L10,22.3C9.9,22.5,9.8,22.6,9.6,22.6z"/>
	<rect x="0.5" y="0.6" class="st0" width="23.9" height="23.9"/>
</g>
<path d="M89.3,73.1c-0.1,0-0.3-0.1-0.4-0.1c-2.2-2.3-3.5-5.3-3.5-8.4c0-6.6,5.4-12,12-12s12,5.4,12,12c0,3.2-1.2,6.2-3.5,8.4
	c-0.2,0.2-0.4,0.2-0.6,0.1c-0.9-0.6-2.6-1.3-4.4-1.9c-0.5-0.2-1.1-0.4-1.6-0.6C99.1,70.4,99,70.2,99,70v-2.5c0-0.2,0.1-0.4,0.3-0.5
	c0,0,1.2-0.5,1.2-2.5c0-0.3,0.2-0.5,0.5-0.5c0,0,0.1-0.2,0.1-0.5S101,63,101,63c-0.3,0-0.5-0.2-0.5-0.5c0-0.1,0-0.3,0.1-0.6
	c0.2-0.6,0.6-1.9,0.4-2.8c-0.2-0.6-1.3-1.1-2.8-1.1s-2.6,0.5-2.8,1.1c-0.1,0.3-0.3,0.4-0.6,0.4c-0.2,0-0.6-0.1-0.7,0.1
	c-0.4,0.4,0,1.9,0.2,2.4c0.1,0.3,0.1,0.4,0.1,0.5c0,0.3-0.2,0.5-0.5,0.5c0,0-0.1,0.2-0.1,0.5S94,64,94,64c0.3,0,0.5,0.2,0.5,0.5
	c0,2.1,1.1,2.5,1.2,2.5c0.2,0.1,0.3,0.3,0.3,0.5V70c0,0.2-0.1,0.4-0.3,0.5c-0.5,0.2-1,0.4-1.5,0.6c-1.8,0.6-3.6,1.3-4.5,2
	C89.5,73.1,89.4,73.1,89.3,73.1z M97.5,53.5c-6.1,0-11,4.9-11,11c0,2.8,1,5.4,2.9,7.4c1.1-0.7,2.8-1.3,4.4-1.9
	c0.4-0.1,0.8-0.3,1.2-0.4v-1.8c-0.5-0.3-1.4-1.1-1.5-2.9c-0.4-0.2-0.6-0.7-0.6-1.4c0-0.6,0.2-1.1,0.5-1.3c-0.2-0.9-0.7-2.5,0.1-3.3
	c0.3-0.3,0.7-0.5,1.2-0.4c0.6-1.1,2.2-1.5,3.6-1.5c1.5,0,3.4,0.5,3.7,1.9c0.3,1.2-0.1,2.6-0.4,3.3c0.3,0.3,0.5,0.7,0.5,1.3
	c0,0.6-0.2,1.1-0.6,1.4c-0.1,1.8-1,2.6-1.5,2.9v1.8c0.4,0.2,0.9,0.3,1.3,0.5c1.7,0.6,3.3,1.2,4.3,1.8c1.9-2,2.9-4.7,2.9-7.4
	C108.5,58.4,103.6,53.5,97.5,53.5z"/>
<path d="M97.5,76.5c-3.2,0-6.3-1.3-8.5-3.6l0.7-0.7c2.1,2.1,4.9,3.3,7.8,3.3c3,0,5.7-1.2,7.8-3.3l0.7,0.7
	C103.8,75.2,100.7,76.5,97.5,76.5z"/>
<rect x="85.5" y="52.5" class="st0" width="25" height="25"/>
<path d="M-37,121.5c-6.3,0-11.5-5.2-11.5-11.5s5.2-11.5,11.5-11.5s11.5,5.2,11.5,11.5S-30.7,121.5-37,121.5z M-37,99.5
	c-5.8,0-10.5,4.7-10.5,10.5s4.7,10.5,10.5,10.5s10.5-4.7,10.5-10.5S-31.2,99.5-37,99.5z"/>
<path d="M-37,114c-0.3,0-0.5-0.2-0.5-0.5v-3c0-0.3,0.2-0.5,0.5-0.5c1.4,0,2.5-1.1,2.5-2.5s-1.1-2.5-2.5-2.5s-2.5,1.1-2.5,2.5
	c0,0.3-0.2,0.5-0.5,0.5s-0.5-0.2-0.5-0.5c0-1.9,1.6-3.5,3.5-3.5s3.5,1.6,3.5,3.5c0,1.8-1.3,3.2-3,3.5v2.5
	C-36.5,113.8-36.7,114-37,114z"/>
<path d="M-37,117c-0.6,0-1-0.4-1-1s0.4-1,1-1s1,0.4,1,1S-36.4,117-37,117z M-37,116C-37,116-37,116-37,116h0.5H-37z"/>
<rect x="-49.5" y="97.5" class="st0" width="25" height="25"/>
<path d="M155,77.5h-23c-0.3,0-0.5-0.2-0.5-0.5V56c0-0.3,0.2-0.5,0.5-0.5h4c0.3,0,0.5,0.2,0.5,0.5v1.5h2V56c0-0.3,0.2-0.5,0.5-0.5h9
	c0.3,0,0.5,0.2,0.5,0.5v1.5h2V56c0-0.3,0.2-0.5,0.5-0.5h4c0.3,0,0.5,0.2,0.5,0.5v21C155.5,77.3,155.3,77.5,155,77.5z M132.5,76.5h22
	v-20h-3V58c0,0.3-0.2,0.5-0.5,0.5h-3c-0.3,0-0.5-0.2-0.5-0.5v-1.5h-8V58c0,0.3-0.2,0.5-0.5,0.5h-3c-0.3,0-0.5-0.2-0.5-0.5v-1.5h-3
	V76.5z"/>
<path d="M151,58.5h-3c-0.3,0-0.5-0.2-0.5-0.5v-4c0-0.3,0.2-0.5,0.5-0.5h3c0.3,0,0.5,0.2,0.5,0.5v4C151.5,58.3,151.3,58.5,151,58.5z
	 M148.5,57.5h2v-3h-2V57.5z M139,58.5h-3c-0.3,0-0.5-0.2-0.5-0.5v-4c0-0.3,0.2-0.5,0.5-0.5h3c0.3,0,0.5,0.2,0.5,0.5v4
	C139.5,58.3,139.3,58.5,139,58.5z M136.5,57.5h2v-3h-2V57.5z"/>
<path d="M155,62h-23c-0.3,0-0.5-0.2-0.5-0.5s0.2-0.5,0.5-0.5h23c0.3,0,0.5,0.2,0.5,0.5S155.3,62,155,62z"/>
<rect x="130.5" y="52.5" class="st0" width="25" height="25"/>
</svg>
