<?xml version="1.0" encoding="utf-8"?>
<!-- Generator: Adobe Illustrator 21.1.0, SVG Export Plug-In . SVG Version: 6.00 Build 0)  -->
<svg version="1.1" id="Layer_1" xmlns="http://www.w3.org/2000/svg" xmlns:xlink="http://www.w3.org/1999/xlink" x="0px" y="0px"
	 viewBox="0 0 24 24" style="enable-background:new 0 0 24 24;" xml:space="preserve">
<style type="text/css">
	.st0{fill:none;}
</style>
<g>
	<path d="M4.2,20.3c-0.1,0-0.2,0-0.3-0.1c-2.1-2.2-3.3-5-3.3-8.1C0.5,5.7,5.7,0.5,12,0.5S23.5,5.7,23.5,12c0,3-1.2,5.9-3.3,8.1
		c-0.2,0.2-0.4,0.2-0.6,0.1c-0.9-0.6-2.5-1.2-4.3-1.8c-0.5-0.2-1-0.4-1.6-0.6c-0.2-0.1-0.3-0.2-0.3-0.4v-2.4c0-0.2,0.1-0.4,0.3-0.5
		c0,0,1.1-0.4,1.1-2.4c0-0.3,0.2-0.5,0.5-0.5c0,0,0.1-0.2,0.1-0.5c0-0.3-0.1-0.5-0.1-0.5c-0.3,0-0.5-0.2-0.5-0.5
		c0-0.1,0-0.3,0.1-0.6c0.2-0.6,0.6-1.8,0.4-2.7c-0.2-0.6-1.3-1.1-2.7-1.1s-2.5,0.5-2.7,1.1C10,7.1,9.8,7.3,9.5,7.2
		C9.3,7.2,9,7.1,8.9,7.3C8.5,7.7,8.9,9.1,9,9.6c0.1,0.3,0.1,0.4,0.1,0.5c0,0.3-0.2,0.5-0.5,0.5c0,0-0.1,0.2-0.1,0.5
		c0,0.3,0.1,0.5,0.1,0.5c0.3,0,0.5,0.2,0.5,0.5c0,2,1.1,2.4,1.1,2.4c0.2,0.1,0.3,0.3,0.3,0.5v2.4c0,0.2-0.1,0.4-0.3,0.4
		c-0.5,0.2-1,0.4-1.5,0.5c-1.7,0.6-3.4,1.2-4.4,1.9C4.4,20.2,4.3,20.3,4.2,20.3z M12,1.5C6.2,1.5,1.5,6.2,1.5,12
		c0,2.7,1,5.2,2.8,7.1c1.1-0.6,2.7-1.2,4.2-1.8c0.4-0.1,0.8-0.3,1.1-0.4v-1.8c-0.5-0.3-1.3-1.1-1.4-2.8c-0.4-0.2-0.6-0.7-0.6-1.3
		c0-0.6,0.2-1,0.5-1.3C7.9,9,7.4,7.4,8.2,6.6c0.3-0.3,0.7-0.4,1.2-0.4c0.6-1,2.1-1.4,3.4-1.4c1.4,0,3.3,0.5,3.6,1.8
		c0.3,1.1-0.1,2.5-0.4,3.2c0.3,0.2,0.5,0.7,0.5,1.2c0,0.6-0.2,1.1-0.6,1.3c-0.1,1.8-0.9,2.5-1.4,2.8V17c0.4,0.2,0.8,0.3,1.2,0.5
		c1.7,0.6,3.1,1.1,4.1,1.7c1.8-2,2.8-4.5,2.8-7.1C22.6,6.2,17.8,1.5,12,1.5z"/>
	<path d="M12,23.5c-3.1,0-6-1.2-8.2-3.4l0.7-0.7c2,2,4.7,3.1,7.5,3.1c2.8,0,5.5-1.1,7.5-3.1l0.7,0.7C18,22.3,15.1,23.5,12,23.5z"/>
	<rect x="0.5" y="0.5" class="st0" width="24" height="24"/>
</g>
<path d="M-33.2,64c-6.3,0-11.5-5.2-11.5-11.5S-39.6,41-33.2,41s11.5,5.2,11.5,11.5S-26.9,64-33.2,64z M-33.2,42
	c-5.8,0-10.5,4.7-10.5,10.5S-39,63-33.2,63s10.5-4.7,10.5-10.5S-27.5,42-33.2,42z"/>
<path d="M-33.2,56.5c-0.3,0-0.5-0.2-0.5-0.5v-3c0-0.3,0.2-0.5,0.5-0.5c1.4,0,2.5-1.1,2.5-2.5s-1.1-2.5-2.5-2.5s-2.5,1.1-2.5,2.5
	c0,0.3-0.2,0.5-0.5,0.5s-0.5-0.2-0.5-0.5c0-1.9,1.6-3.5,3.5-3.5s3.5,1.6,3.5,3.5c0,1.8-1.3,3.2-3,3.5V56
	C-32.8,56.3-33,56.5-33.2,56.5z"/>
<path d="M-33.2,59.5c-0.6,0-1-0.4-1-1s0.4-1,1-1s1,0.4,1,1S-32.7,59.5-33.2,59.5z M-33.2,58.5C-33.2,58.5-33.2,58.5-33.2,58.5h0.5
	H-33.2z"/>
<rect x="-45.8" y="40" class="st0" width="25" height="25"/>
<path d="M158.8,20h-23c-0.3,0-0.5-0.2-0.5-0.5v-21c0-0.3,0.2-0.5,0.5-0.5h4c0.3,0,0.5,0.2,0.5,0.5V0h2v-1.5c0-0.3,0.2-0.5,0.5-0.5h9
	c0.3,0,0.5,0.2,0.5,0.5V0h2v-1.5c0-0.3,0.2-0.5,0.5-0.5h4c0.3,0,0.5,0.2,0.5,0.5v21C159.2,19.8,159,20,158.8,20z M136.2,19h22V-1h-3
	v1.5c0,0.3-0.2,0.5-0.5,0.5h-3c-0.3,0-0.5-0.2-0.5-0.5V-1h-8v1.5c0,0.3-0.2,0.5-0.5,0.5h-3c-0.3,0-0.5-0.2-0.5-0.5V-1h-3V19z"/>
<path d="M154.8,1h-3c-0.3,0-0.5-0.2-0.5-0.5v-4c0-0.3,0.2-0.5,0.5-0.5h3c0.3,0,0.5,0.2,0.5,0.5v4C155.2,0.8,155,1,154.8,1z M152.2,0
	h2v-3h-2V0z M142.8,1h-3c-0.3,0-0.5-0.2-0.5-0.5v-4c0-0.3,0.2-0.5,0.5-0.5h3c0.3,0,0.5,0.2,0.5,0.5v4C143.2,0.8,143,1,142.8,1z
	 M140.2,0h2v-3h-2V0z"/>
<path d="M158.8,4.5h-23c-0.3,0-0.5-0.2-0.5-0.5s0.2-0.5,0.5-0.5h23c0.3,0,0.5,0.2,0.5,0.5S159,4.5,158.8,4.5z"/>
<rect x="134.2" y="-5" class="st0" width="25" height="25"/>
</svg>
