<?xml version="1.0" encoding="utf-8"?>
<!-- Generator: Adobe Illustrator 21.1.0, SVG Export Plug-In . SVG Version: 6.00 Build 0)  -->
<svg version="1.1" id="Layer_1" xmlns="http://www.w3.org/2000/svg" xmlns:xlink="http://www.w3.org/1999/xlink" x="0px" y="0px"
	 viewBox="0 0 24 24" style="enable-background:new 0 0 24 24;" xml:space="preserve">
<style type="text/css">
	.st0{fill:none;}
</style>
<rect x="-0.5" y="-0.5" class="st0" width="25" height="25"/>
<g>
	<path d="M12,18.2c-6.3,0-11.2-6.2-11.4-6.4c-0.1-0.2-0.1-0.4,0-0.6C0.8,11,5.8,4.8,12,4.8s11.2,6.2,11.4,6.4c0.1,0.2,0.1,0.4,0,0.6
		C23.2,12.1,18.3,18.2,12,18.2z M1.6,11.5C2.7,12.7,7,17.3,12,17.3s9.3-4.5,10.4-5.8c-1.1-1.2-5.4-5.8-10.4-5.8S2.7,10.3,1.6,11.5z"
		/>
	<path d="M12,15.8c-2.4,0-4.3-1.9-4.3-4.3S9.6,7.2,12,7.2s4.3,1.9,4.3,4.3S14.4,15.8,12,15.8z M12,8.2c-1.9,0-3.4,1.5-3.4,3.4
		s1.5,3.4,3.4,3.4s3.4-1.5,3.4-3.4S13.9,8.2,12,8.2z"/>
	<path d="M12,13.9c-1.3,0-2.4-1.1-2.4-2.4c0-0.3,0.2-0.5,0.5-0.5c0.3,0,0.5,0.2,0.5,0.5c0,0.8,0.6,1.4,1.4,1.4
		c0.8,0,1.4-0.6,1.4-1.4c0-0.8-0.6-1.4-1.4-1.4c-0.3,0-0.5-0.2-0.5-0.5c0-0.3,0.2-0.5,0.5-0.5c1.3,0,2.4,1.1,2.4,2.4
		S13.3,13.9,12,13.9z"/>
	<rect x="0.5" class="st0" width="24" height="24"/>
</g>
<path d="M-41,69.5c-4.7,0-8.5-3.8-8.5-8.5s3.8-8.5,8.5-8.5s8.5,3.8,8.5,8.5S-36.3,69.5-41,69.5z M-41,53.5c-4.1,0-7.5,3.4-7.5,7.5
	s3.4,7.5,7.5,7.5s7.5-3.4,7.5-7.5S-36.9,53.5-41,53.5z"/>
<path d="M-26,76.5c-0.1,0-0.3,0-0.4-0.1l-9.3-9.3c-0.2-0.2-0.2-0.5,0-0.7s0.5-0.2,0.7,0l9.3,9.3c0.2,0.2,0.2,0.5,0,0.7
	C-25.7,76.5-25.9,76.5-26,76.5z"/>
<rect x="-49.5" y="52.5" class="st0" width="25" height="25"/>
<path d="M19,76.5c-0.1,0-0.3,0-0.4-0.1l-23-23c-0.2-0.2-0.2-0.5,0-0.7s0.5-0.2,0.7,0l23,23c0.2,0.2,0.2,0.5,0,0.7
	C19.3,76.5,19.1,76.5,19,76.5z"/>
<path d="M-4,76.5c-0.1,0-0.3,0-0.4-0.1c-0.2-0.2-0.2-0.5,0-0.7l23-23c0.2-0.2,0.5-0.2,0.7,0s0.2,0.5,0,0.7l-23,23
	C-3.7,76.5-3.9,76.5-4,76.5z"/>
<rect x="-4.5" y="52.5" class="st0" width="25" height="25"/>
<path d="M50,67.5c-0.1,0-0.1,0-0.2,0l-9-3.5c-0.2-0.1-0.3-0.3-0.3-0.5c0-0.2,0.1-0.4,0.3-0.5l23-9.5c0.2-0.1,0.5,0,0.6,0.2
	c0.1,0.2,0.1,0.5-0.1,0.6l-14,13C50.2,67.5,50.1,67.5,50,67.5z M42.3,63.5l7.5,2.9l11.7-10.9L42.3,63.5z"/>
<path d="M60,73c-0.1,0-0.2,0-0.2-0.1l-10-5.5c-0.1-0.1-0.2-0.2-0.3-0.4c0-0.2,0-0.3,0.2-0.4l14-13c0.2-0.1,0.4-0.2,0.6-0.1
	c0.2,0.1,0.3,0.3,0.2,0.5l-4,18.5c0,0.2-0.1,0.3-0.3,0.3C60.1,73,60.1,73,60,73z M50.8,66.9l8.8,4.8l3.5-16.3L50.8,66.9z"/>
<path d="M50,75.5c0,0-0.1,0-0.1,0c-0.2-0.1-0.4-0.3-0.4-0.5v-8h1v6.2l2.6-4.4l0.9,0.5l-3.5,6C50.3,75.4,50.2,75.5,50,75.5z"/>
<rect x="40.5" y="52.5" class="st0" width="25" height="25"/>
<path d="M89.3,73.1c-0.1,0-0.3-0.1-0.4-0.1c-2.2-2.3-3.5-5.3-3.5-8.4c0-6.6,5.4-12,12-12s12,5.4,12,12c0,3.2-1.2,6.2-3.5,8.4
	c-0.2,0.2-0.4,0.2-0.6,0.1c-0.9-0.6-2.6-1.3-4.4-1.9c-0.5-0.2-1.1-0.4-1.6-0.6C99.1,70.4,99,70.2,99,70v-2.5c0-0.2,0.1-0.4,0.3-0.5
	c0,0,1.2-0.5,1.2-2.5c0-0.3,0.2-0.5,0.5-0.5c0,0,0.1-0.2,0.1-0.5S101,63,101,63c-0.3,0-0.5-0.2-0.5-0.5c0-0.1,0-0.3,0.1-0.6
	c0.2-0.6,0.6-1.9,0.4-2.8c-0.2-0.6-1.3-1.1-2.8-1.1s-2.6,0.5-2.8,1.1c-0.1,0.3-0.3,0.4-0.6,0.4c-0.2,0-0.6-0.1-0.7,0.1
	c-0.4,0.4,0,1.9,0.2,2.4c0.1,0.3,0.1,0.4,0.1,0.5c0,0.3-0.2,0.5-0.5,0.5c0,0-0.1,0.2-0.1,0.5S94,64,94,64c0.3,0,0.5,0.2,0.5,0.5
	c0,2.1,1.1,2.5,1.2,2.5c0.2,0.1,0.3,0.3,0.3,0.5V70c0,0.2-0.1,0.4-0.3,0.5c-0.5,0.2-1,0.4-1.5,0.6c-1.8,0.6-3.6,1.3-4.5,2
	C89.5,73.1,89.4,73.1,89.3,73.1z M97.5,53.5c-6.1,0-11,4.9-11,11c0,2.8,1,5.4,2.9,7.4c1.1-0.7,2.8-1.3,4.4-1.9
	c0.4-0.1,0.8-0.3,1.2-0.4v-1.8c-0.5-0.3-1.4-1.1-1.5-2.9c-0.4-0.2-0.6-0.7-0.6-1.4c0-0.6,0.2-1.1,0.5-1.3c-0.2-0.9-0.7-2.5,0.1-3.3
	c0.3-0.3,0.7-0.5,1.2-0.4c0.6-1.1,2.2-1.5,3.6-1.5c1.5,0,3.4,0.5,3.7,1.9c0.3,1.2-0.1,2.6-0.4,3.3c0.3,0.3,0.5,0.7,0.5,1.3
	c0,0.6-0.2,1.1-0.6,1.4c-0.1,1.8-1,2.6-1.5,2.9v1.8c0.4,0.2,0.9,0.3,1.3,0.5c1.7,0.6,3.3,1.2,4.3,1.8c1.9-2,2.9-4.7,2.9-7.4
	C108.5,58.4,103.6,53.5,97.5,53.5z"/>
<path d="M97.5,76.5c-3.2,0-6.3-1.3-8.5-3.6l0.7-0.7c2.1,2.1,4.9,3.3,7.8,3.3c3,0,5.7-1.2,7.8-3.3l0.7,0.7
	C103.8,75.2,100.7,76.5,97.5,76.5z"/>
<rect x="85.5" y="52.5" class="st0" width="25" height="25"/>
<path d="M-37,121.5c-6.3,0-11.5-5.2-11.5-11.5s5.2-11.5,11.5-11.5s11.5,5.2,11.5,11.5S-30.7,121.5-37,121.5z M-37,99.5
	c-5.8,0-10.5,4.7-10.5,10.5s4.7,10.5,10.5,10.5s10.5-4.7,10.5-10.5S-31.2,99.5-37,99.5z"/>
<path d="M-37,114c-0.3,0-0.5-0.2-0.5-0.5v-3c0-0.3,0.2-0.5,0.5-0.5c1.4,0,2.5-1.1,2.5-2.5s-1.1-2.5-2.5-2.5s-2.5,1.1-2.5,2.5
	c0,0.3-0.2,0.5-0.5,0.5s-0.5-0.2-0.5-0.5c0-1.9,1.6-3.5,3.5-3.5s3.5,1.6,3.5,3.5c0,1.8-1.3,3.2-3,3.5v2.5
	C-36.5,113.8-36.7,114-37,114z"/>
<path d="M-37,117c-0.6,0-1-0.4-1-1s0.4-1,1-1s1,0.4,1,1S-36.4,117-37,117z M-37,116C-37,116-37,116-37,116h0.5H-37z"/>
<rect x="-49.5" y="97.5" class="st0" width="25" height="25"/>
<path d="M155,77.5h-23c-0.3,0-0.5-0.2-0.5-0.5V56c0-0.3,0.2-0.5,0.5-0.5h4c0.3,0,0.5,0.2,0.5,0.5v1.5h2V56c0-0.3,0.2-0.5,0.5-0.5h9
	c0.3,0,0.5,0.2,0.5,0.5v1.5h2V56c0-0.3,0.2-0.5,0.5-0.5h4c0.3,0,0.5,0.2,0.5,0.5v21C155.5,77.3,155.3,77.5,155,77.5z M132.5,76.5h22
	v-20h-3V58c0,0.3-0.2,0.5-0.5,0.5h-3c-0.3,0-0.5-0.2-0.5-0.5v-1.5h-8V58c0,0.3-0.2,0.5-0.5,0.5h-3c-0.3,0-0.5-0.2-0.5-0.5v-1.5h-3
	V76.5z"/>
<path d="M151,58.5h-3c-0.3,0-0.5-0.2-0.5-0.5v-4c0-0.3,0.2-0.5,0.5-0.5h3c0.3,0,0.5,0.2,0.5,0.5v4C151.5,58.3,151.3,58.5,151,58.5z
	 M148.5,57.5h2v-3h-2V57.5z M139,58.5h-3c-0.3,0-0.5-0.2-0.5-0.5v-4c0-0.3,0.2-0.5,0.5-0.5h3c0.3,0,0.5,0.2,0.5,0.5v4
	C139.5,58.3,139.3,58.5,139,58.5z M136.5,57.5h2v-3h-2V57.5z"/>
<path d="M155,62h-23c-0.3,0-0.5-0.2-0.5-0.5s0.2-0.5,0.5-0.5h23c0.3,0,0.5,0.2,0.5,0.5S155.3,62,155,62z"/>
<rect x="130.5" y="52.5" class="st0" width="25" height="25"/>
</svg>
